<svg xmlns="http://www.w3.org/2000/svg" width="1200" height="420" viewBox="0 0 1200 420">
<defs><style>
.bg{fill:#fff}.node{fill:#eff6ff;stroke:#2563eb;stroke-width:2;rx:18}.t{font:700 18px Arial;fill:#0f172a}.s{font:500 13px Arial;fill:#475569}.a{stroke:#2563eb;stroke-width:3;marker-end:url(#m)}
</style><marker id="m" markerWidth="10" markerHeight="10" refX="8" refY="3" orient="auto"><path d="M0,0 L0,6 L9,3 z" fill="#2563eb"/></marker></defs>
<rect width="1200" height="420" class="bg"/>
<text x="50" y="55" style="font:700 30px Arial;fill:#0f172a">Primary Demo Flow</text>
<g transform="translate(50,110)">
<rect width="155" height="95" class="node"/><text x="25" y="40" class="t">Invoice</text><text x="25" y="65" class="s">Billing360</text>
<path d="M165 48 L215 48" class="a"/>
<rect x="225" width="155" height="95" class="node"/><text x="250" y="40" class="t">Payment</text><text x="250" y="65" class="s">Sui USDC / Stripe</text>
<path d="M390 48 L440 48" class="a"/>
<rect x="450" width="155" height="95" class="node"/><text x="475" y="40" class="t">TXID</text><text x="475" y="65" class="s">receipt captured</text>
<path d="M615 48 L665 48" class="a"/>
<rect x="675" width="155" height="95" class="node"/><text x="700" y="40" class="t">Attestation</text><text x="700" y="65" class="s">verifiable record</text>
<path d="M840 48 L890 48" class="a"/>
<rect x="900" width="155" height="95" class="node"/><text x="925" y="40" class="t">CRM</text><text x="925" y="65" class="s">paid + updated</text>
</g>
<g transform="translate(162,260)">
<rect width="210" height="85" class="node"/><text x="25" y="35" class="t">Storage360</text><text x="25" y="58" class="s">backup + receipt trail</text>
<path d="M220 42 L315 42" class="a"/>
<rect x="325" width="210" height="85" class="node"/><text x="350" y="35" class="t">Treasury360</text><text x="350" y="58" class="s">wallet + balance visibility</text>
<path d="M545 42 L640 42" class="a"/>
<rect x="650" width="210" height="85" class="node"/><text x="675" y="35" class="t">AI Sidecars</text><text x="675" y="58" class="s">workflow assistance</text>
</g>
</svg>